<svg xmlns="http://www.w3.org/2000/svg" viewBox="0 0 555.08 136.64"><defs><style>.cls-1,.cls-2{fill:#071a3a;}.cls-2{font-size:128px;font-family:Ubuntu-Bold, Ubuntu;font-weight:700;}.cls-3{letter-spacing:-0.04em;}.cls-4{letter-spacing:-0.02em;}</style></defs><g id="Calque_2" data-name="Calque 2"><g id="Calque_3" data-name="Calque 3"><path class="cls-1" d="M65,25.49s12,5.81,8.14,23.17a24.49,24.49,0,0,1-3,7.46L55.16,80.75s-4.61,5.82,0,13.61a9.84,9.84,0,0,0,4.43,4c2.73,1.21,7.14,2,12.35-1.53a18.46,18.46,0,0,0,5.36-5.76L92.63,65.82A50.64,50.64,0,0,0,100,39.52V39A36.16,36.16,0,0,0,63.83,2.82H17.48A17.49,17.49,0,0,0,0,20.3V80.5a1.19,1.19,0,0,0,2.21.62l31-51S43.5,12.67,65,25.49Z"/><path class="cls-1" d="M57.24,109.28s-26.09-10-11.42-33.46L63.6,46.48s4.9-10.16-6.1-16.16c0,0-9.84-4.36-15.42,4.82L1.61,101.9A11.19,11.19,0,0,0,0,107.67v.67a17.49,17.49,0,0,0,17.48,17.48H63.83c20,0,34.67-16.5,36.17-36.17V77.52a1.21,1.21,0,0,0-2.25-.63L83.91,99.56a22.4,22.4,0,0,1-7.13,7.33A22.72,22.72,0,0,1,57.24,109.28Z"/><text class="cls-2" transform="translate(114.89 108.35)">Ban<tspan class="cls-3" x="232.19" y="0">k</tspan><tspan class="cls-4" x="301.69" y="0">c</tspan><tspan x="362.49" y="0">o</tspan></text></g></g></svg>